# xmcd
#
# Track frame offsets:
#       150
#       17052
#       36534
#       55721
#       80038
#       100035
#       118272
#       139064
#       150921
#       171818
#       189785
#       206187
#
# Disc length: 2988 seconds
#
# Revision: 0
# Processed by: cddbd v1.4PL0 Copyright (c) Steve Scherf et al.
# Submitted via: WhereIsIt 3.26
#
DISCID=9c0baa0c
DTITLE=Ana BelÚn - Lorquiana - Poemas
DYEAR=1900
DGENRE=
TTITLE0=Son de negros en Cuba
TTITLE1=Romance de la pena negra
TTITLE2=Herido de amor
TTITLE3=Pequeño Vals Vienés
TTITLE4=Nocturnos de la ventana
TTITLE5=Siete corazones
TTITLE6=Romance de la luna
TTITLE7=Canción tonta
TTITLE8=Muerto de amor
TTITLE9=Por tu amor me duele el aire
TTITLE10=Canción del gitano apaleado
TTITLE11=Alma ausente
EXTD=
EXTT0=
EXTT1=
EXTT2=
EXTT3=
EXTT4=
EXTT5=
EXTT6=
EXTT7=
EXTT8=
EXTT9=
EXTT10=
EXTT11=
PLAYORDER=
